<?xml version="1.0" encoding="UTF-8" standalone="no"?>
<!-- Created with Inkscape (http://www.inkscape.org/) -->

<svg
   xmlns:dc="http://purl.org/dc/elements/1.1/"
   xmlns:cc="http://creativecommons.org/ns#"
   xmlns:rdf="http://www.w3.org/1999/02/22-rdf-syntax-ns#"
   xmlns:svg="http://www.w3.org/2000/svg"
   xmlns="http://www.w3.org/2000/svg"
   xmlns:sodipodi="http://sodipodi.sourceforge.net/DTD/sodipodi-0.dtd"
   xmlns:inkscape="http://www.inkscape.org/namespaces/inkscape"
   width="588"
   height="438"
   id="svg4084"
   version="1.1"
   inkscape:version="0.92.3 (2405546, 2018-03-11)"
   inkscape:export-filename="/home/brad/Vagrant/alkaline/drupal/web/themes/custom/alkaline/screenshot.png"
   inkscape:export-xdpi="90"
   inkscape:export-ydpi="90"
   sodipodi:docname="screenshot.svg">
  <defs
     id="defs4086" />
  <sodipodi:namedview
     id="base"
     pagecolor="#ffffff"
     bordercolor="#666666"
     borderopacity="1.0"
     inkscape:pageopacity="0.0"
     inkscape:pageshadow="2"
     inkscape:zoom="1.2570508"
     inkscape:cx="331.51899"
     inkscape:cy="266.46646"
     inkscape:document-units="px"
     inkscape:current-layer="layer1"
     showgrid="true"
     fit-margin-top="0"
     fit-margin-left="0"
     fit-margin-right="0"
     fit-margin-bottom="0"
     inkscape:window-width="1920"
     inkscape:window-height="1023"
     inkscape:window-x="0"
     inkscape:window-y="33"
     inkscape:window-maximized="1"
     inkscape:snap-bbox="true"
     inkscape:snap-nodes="false"
     inkscape:bbox-nodes="true">
    <inkscape:grid
       type="xygrid"
       id="grid4312"
       originx="-290"
       originy="-95" />
  </sodipodi:namedview>
  <metadata
     id="metadata4089">
    <rdf:RDF>
      <cc:Work
         rdf:about="">
        <dc:format>image/svg+xml</dc:format>
        <dc:type
           rdf:resource="http://purl.org/dc/dcmitype/StillImage" />
        <dc:title></dc:title>
      </cc:Work>
    </rdf:RDF>
  </metadata>
  <g
     inkscape:label="Layer 1"
     inkscape:groupmode="layer"
     id="layer1"
     transform="translate(170.42535,245.33722)">
    <rect
       style="color:#000000;display:inline;overflow:visible;visibility:visible;fill:#f8f9fa;fill-opacity:1;fill-rule:nonzero;stroke:none;stroke-width:0.49999994;marker:none;enable-background:accumulate"
       id="rect3284-2-0"
       width="588"
       height="438"
       x="-170.42535"
       y="-245.33722" />
    <g
       id="g903">
      <rect
         ry="16"
         rx="16"
         y="-91.632408"
         x="-73.515724"
         height="130.59038"
         width="130.59038"
         id="rect843"
         style="color:#000000;clip-rule:nonzero;display:inline;overflow:visible;visibility:visible;opacity:1;isolation:auto;mix-blend-mode:normal;color-interpolation:sRGB;color-interpolation-filters:linearRGB;solid-color:#000000;solid-opacity:1;vector-effect:none;fill:none;fill-opacity:1;fill-rule:evenodd;stroke:#3366cc;stroke-width:5;stroke-linecap:butt;stroke-linejoin:miter;stroke-miterlimit:4;stroke-dasharray:none;stroke-dashoffset:0;stroke-opacity:1;marker:none;color-rendering:auto;image-rendering:auto;shape-rendering:auto;text-rendering:auto;enable-background:accumulate" />
      <rect
         y="-76.337219"
         x="-50.42535"
         height="100"
         width="140"
         id="rect3284-2-0-2"
         style="color:#000000;display:inline;overflow:visible;visibility:visible;fill:#f8f9fa;fill-opacity:1;fill-rule:nonzero;stroke:none;stroke-width:0.49999994;marker:none;enable-background:accumulate" />
      <g
         style="stroke-width:0.42393333"
         inkscape:label="Layer 1"
         id="layer1-5"
         transform="matrix(2.3588616,0,0,2.3588616,359.20154,-398.24185)">
        <g
           aria-label="ALKALINE"
           style="color:#000000;font-style:normal;font-variant:normal;font-weight:normal;font-stretch:normal;line-height:0%;font-family:Sanchez;-inkscape-font-specification:Sanchez;letter-spacing:0px;word-spacing:0px;clip-rule:nonzero;display:inline;overflow:visible;visibility:visible;opacity:1;isolation:auto;mix-blend-mode:normal;color-interpolation:sRGB;color-interpolation-filters:linearRGB;solid-color:#000000;solid-opacity:1;fill:#ffffff;fill-opacity:1;fill-rule:nonzero;stroke:none;stroke-width:0.21196663;stroke-linecap:butt;stroke-linejoin:miter;stroke-miterlimit:4;stroke-dasharray:none;stroke-dashoffset:0;stroke-opacity:1;marker:none;color-rendering:auto;image-rendering:auto;shape-rendering:auto;text-rendering:auto;enable-background:accumulate"
           id="text3765-18-7-4-2-8-8">
          <g
             aria-label="bootstrap_base"
             style="font-style:normal;font-variant:normal;font-weight:normal;font-stretch:normal;font-size:30.17198753px;line-height:125%;font-family:Arial;-inkscape-font-specification:Arial;text-align:center;letter-spacing:0px;word-spacing:0px;text-anchor:middle;fill:#bfbfbf;fill-opacity:1;stroke:none;stroke-width:0.4239333px;stroke-linecap:butt;stroke-linejoin:miter;stroke-opacity:1"
             id="text829">
            <g
               style="stroke-width:0.4239333px"
               id="g915">
              <g
                 style="stroke-width:0.4239333px"
                 id="g913">
                <g
                   aria-label="BOOTSTRAP"
                   style="color:#000000;font-style:normal;font-variant:normal;font-weight:normal;font-stretch:normal;font-size:40px;line-height:125%;font-family:Arial;-inkscape-font-specification:Arial;text-align:center;letter-spacing:0px;word-spacing:0px;text-anchor:middle;clip-rule:nonzero;display:inline;overflow:visible;visibility:visible;opacity:1;isolation:auto;mix-blend-mode:normal;color-interpolation:sRGB;color-interpolation-filters:linearRGB;solid-color:#000000;solid-opacity:1;vector-effect:none;fill:#bfbfbf;fill-opacity:1;fill-rule:nonzero;stroke:none;stroke-width:0.4239333px;stroke-linecap:butt;stroke-linejoin:miter;stroke-miterlimit:4;stroke-dasharray:none;stroke-dashoffset:0;stroke-opacity:1;marker:none;color-rendering:auto;image-rendering:auto;shape-rendering:auto;text-rendering:auto;enable-background:accumulate"
                   id="text849-2">
                  <path
                     style="font-style:normal;font-variant:normal;font-weight:800;font-stretch:normal;font-family:'Open Sans';-inkscape-font-specification:'Open Sans Ultra-Bold';vector-effect:none;fill:#3366cc;fill-opacity:1;stroke:none;stroke-width:0.42393327px;stroke-linecap:butt;stroke-linejoin:miter;stroke-miterlimit:4;stroke-dasharray:none;stroke-dashoffset:0;stroke-opacity:1;marker:none"
                     d="m -131.84704,139.66278 c -2.68277,0 -4.72954,0.74393 -6.14031,2.23178 -1.40306,1.48015 -2.10458,3.62714 -2.10458,6.44097 0,2.84465 0.70538,5.01091 2.11615,6.49877 1.41847,1.48786 3.45368,2.23179 6.10561,2.23179 2.69048,0 4.73339,-0.74007 6.12874,-2.22022 1.39535,-1.48015 2.09303,-3.64256 2.09303,-6.48722 0,-2.85237 -0.69382,-5.01477 -2.08146,-6.48721 -1.38764,-1.47244 -3.4267,-2.20866 -6.11718,-2.20866 z m 18.8719,0 c -2.68277,0 -4.72954,0.74393 -6.14031,2.23178 -1.40306,1.48015 -2.10458,3.62714 -2.10458,6.44097 0,2.84465 0.70538,5.01091 2.11615,6.49877 1.41847,1.48786 3.45368,2.23179 6.10561,2.23179 2.69048,0 4.7334,-0.74007 6.12874,-2.22022 1.39535,-1.48015 2.09303,-3.64256 2.09303,-6.48722 0,-2.85237 -0.69382,-5.01477 -2.08146,-6.48721 -1.38764,-1.47244 -3.4267,-2.20866 -6.11718,-2.20866 z m 30.96749,0.0231 c -1.98124,0 -3.53848,0.43556 -4.67172,1.30669 -1.13324,0.87113 -1.69986,2.08532 -1.69986,3.64256 0,0.83258 0.13106,1.55338 0.39317,2.1624 0.26982,0.60902 0.6784,1.14866 1.22575,1.61891 0.55505,0.47026 1.38378,0.95593 2.48618,1.45703 1.21804,0.54734 1.96583,0.90966 2.24335,1.08697 0.28524,0.17731 0.48954,0.35462 0.61288,0.53193 0.13105,0.1696 0.19658,0.37004 0.19658,0.60131 0,0.37004 -0.15804,0.67455 -0.47411,0.91353 -0.31607,0.23128 -0.81331,0.34691 -1.49171,0.34691 -0.78633,0 -1.64975,-0.12334 -2.59026,-0.37004 -0.94051,-0.2544 -1.84633,-0.60516 -2.71746,-1.05229 v 4.07041 c 0.82487,0.39317 1.61891,0.67069 2.38211,0.83259 0.7632,0.15418 1.70757,0.23127 2.8331,0.23127 1.34909,0 2.52473,-0.22357 3.52692,-0.67069 1.002182,-0.45484 1.769237,-1.08699 2.301167,-1.89645 0.53193,-0.81716 0.797889,-1.74996 0.797889,-2.7984 0,-1.14095 -0.285236,-2.08531 -0.855709,-2.83309 -0.562765,-0.7555 -1.572657,-1.46088 -3.029677,-2.11615 -1.5187,-0.69382 -2.4515,-1.17179 -2.79841,-1.4339 -0.3392,-0.26211 -0.5088,-0.55891 -0.5088,-0.8904 0,-0.30836 0.13491,-0.56662 0.40473,-0.77477 0.26982,-0.20814 0.70153,-0.31221 1.29513,-0.31221 1.14865,0 2.51317,0.36232 4.093534,1.08698 l 1.399202,-3.52692 c -1.819346,-0.80945 -3.604006,-1.21418 -5.353976,-1.21418 z m 41.744831,0.17345 -5.429139,16.70833 -4.746885,-7.09892 c 1.911855,-1.07157 2.867789,-2.58641 2.867789,-4.54452 0,-3.33034 -2.297316,-4.99551 -6.891947,-4.99551 h -5.538996 v 16.90608 h 4.567651 v -6.15187 h 1.156363 l 3.584738,6.15187 h 5.180521 4.752664 l 0.855716,-3.16845 h 5.492738 l 0.832584,3.16845 h 4.995503 l -5.585248,-16.97546 z m -115.162531,0.0694 v 16.90608 h 6.57972 c 1.98895,0 3.55776,-0.43942 4.70641,-1.31826 1.15637,-0.88655 1.73455,-2.09688 1.73455,-3.63099 0,-1.03302 -0.23512,-1.87331 -0.70538,-2.52088 -0.47025,-0.64756 -1.2296,-1.11011 -2.27804,-1.38764 v -0.11563 c 0.79403,-0.19273 1.43389,-0.62444 1.91957,-1.29513 0.48567,-0.6707 0.72851,-1.48015 0.72851,-2.42837 0,-1.44161 -0.55891,-2.50161 -1.67673,-3.18001 -1.11012,-0.68611 -2.81383,-1.02917 -5.11114,-1.02917 z m 52.46434,0 v 3.73507 h 4.12823 v 13.17101 h 4.56765 V 143.6638 h 4.11666 v -3.73507 z m 27.706545,0 v 3.73507 h 4.128224 v 13.17101 h 4.567651 V 143.6638 h 4.116662 v -3.73507 z m 48.509569,0 v 16.90608 h 4.567645 v -5.60838 h 1.283568 c 2.050622,0 3.630989,-0.51266 4.741101,-1.53797 1.117826,-1.03302 1.676736,-2.49389 1.676736,-4.38262 0,-1.71914 -0.535784,-3.0451 -1.607353,-3.9779 -1.071563,-0.93281 -2.675061,-1.39921 -4.810484,-1.39921 z m -10.441989,2.71746 c 0.07709,0.424 0.23513,1.12553 0.474109,2.10459 0.246694,0.97906 0.454838,1.77695 0.624439,2.39368 l 0.728512,2.77528 h -3.5963 c 0.701531,-2.65194 1.152509,-4.42889 1.352951,-5.33085 0.208144,-0.90197 0.346905,-1.54953 0.416289,-1.9427 z m -113.670815,0.74008 h 1.28356 c 1.4339,0 2.15084,0.47411 2.15084,1.42233 0,0.53193 -0.18116,0.9328 -0.54349,1.20262 -0.35462,0.26982 -0.85956,0.40473 -1.51484,0.40473 h -1.37607 z m 95.423354,0 h 0.901967 c 1.564944,0 2.347422,0.58204 2.347422,1.74611 0,1.41077 -0.797895,2.11615 -2.393679,2.11615 h -0.85571 z m -76.412694,0.0231 c 1.12553,0 1.96968,0.40473 2.53244,1.21418 0.57048,0.80175 0.85571,2.04677 0.85571,3.73507 0,1.68058 -0.28138,2.91789 -0.84414,3.71193 -0.55506,0.79403 -1.41077,1.19105 -2.56714,1.19105 -2.27419,0 -3.41128,-1.63433 -3.41128,-4.90298 0,-3.2995 1.1448,-4.94925 3.43441,-4.94925 z m 18.8719,0 c 1.12553,0 1.96968,0.40473 2.53244,1.21418 0.57048,0.80175 0.85571,2.04677 0.85571,3.73507 0,1.68058 -0.28138,2.91789 -0.84414,3.71193 -0.55506,0.79403 -1.41077,1.19105 -2.56714,1.19105 -2.27419,0 -3.41128,-1.63433 -3.41128,-4.90298 0,-3.2995 1.1448,-4.94925 3.43441,-4.94925 z m 90.797889,0.20814 h 1.179496 c 1.264296,0 1.896444,0.57048 1.896444,1.71143 0,0.6784 -0.204297,1.21033 -0.612877,1.59578 -0.400872,0.38546 -0.944365,0.57819 -1.630479,0.57819 h -0.832584 z m -128.680449,6.14031 h 1.51484 c 0.72465,0 1.27585,0.15033 1.6536,0.45098 0.38545,0.30065 0.57818,0.73236 0.57818,1.29513 0,1.20262 -0.71309,1.80393 -2.13928,1.80393 h -1.60734 z m 34.29782,8.52473 c -1.98124,0 -3.53848,0.43556 -4.67172,1.30669 -1.13323,0.87113 -1.69986,2.08532 -1.69986,3.64256 0,0.83258 0.13106,1.55338 0.39317,2.1624 0.26982,0.60902 0.6784,1.14866 1.22575,1.61891 0.55505,0.47026 1.38378,0.95593 2.48619,1.45703 1.21804,0.54734 1.96582,0.90967 2.24335,1.08698 0.28523,0.17731 0.48952,0.35462 0.61287,0.53193 0.13105,0.1696 0.19658,0.37004 0.19658,0.60131 0,0.37004 -0.15803,0.67455 -0.47411,0.91353 -0.31607,0.23127 -0.81331,0.34691 -1.49171,0.34691 -0.78633,0 -1.64975,-0.12335 -2.59026,-0.37004 -0.94051,-0.2544 -1.84633,-0.60516 -2.71746,-1.05229 v 4.07041 c 0.82487,0.39316 1.61891,0.67069 2.38211,0.83258 0.76321,0.15419 1.70757,0.23128 2.8331,0.23128 1.3491,0 2.52473,-0.22357 3.52692,-0.6707 1.00218,-0.45483 1.76924,-1.08698 2.30117,-1.89644 0.53193,-0.81716 0.79789,-1.74997 0.79789,-2.79841 0,-1.14095 -0.28523,-2.08531 -0.85571,-2.83309 -0.56277,-0.75549 -1.57266,-1.46088 -3.02968,-2.11615 -1.5187,-0.69382 -2.4515,-1.17179 -2.79841,-1.4339 -0.3392,-0.26211 -0.5088,-0.55891 -0.5088,-0.8904 0,-0.30836 0.13491,-0.56662 0.40473,-0.77477 0.26982,-0.20814 0.70153,-0.31221 1.29513,-0.31221 1.14866,0 2.51317,0.36232 4.09354,1.08698 l 1.3992,-3.52692 c -1.81935,-0.80945 -3.60401,-1.21418 -5.35398,-1.21418 z m -19.21881,0.17345 -5.51586,16.97546 h 5.01863 l 0.85571,-3.16844 h 5.49274 l 0.83258,3.16844 h 4.9955 l -5.58525,-16.97546 z m -19.64666,0.0694 v 16.90608 h 6.57972 c 1.98895,0 3.55776,-0.43942 4.70641,-1.31826 1.15637,-0.88654 1.73455,-2.09687 1.73455,-3.63099 0,-1.03302 -0.23513,-1.87331 -0.70538,-2.52088 -0.47026,-0.64756 -1.2296,-1.11011 -2.27804,-1.38764 v -0.11563 c 0.79404,-0.19273 1.43389,-0.62444 1.91957,-1.29513 0.48567,-0.6707 0.72851,-1.48015 0.72851,-2.42837 0,-1.44161 -0.55891,-2.50161 -1.67673,-3.18001 -1.11012,-0.68611 -2.81383,-1.02917 -5.11114,-1.02917 z m 46.85597,0 v 16.90608 h 10.03726 v -3.7235 h -5.46962 v -3.19157 h 5.06489 v -3.66568 h -5.06489 v -2.65964 h 5.46962 v -3.66569 z m -24.13337,2.71747 c 0.0771,0.424 0.23513,1.12553 0.47411,2.10458 0.24669,0.97906 0.45483,1.77695 0.62444,2.39368 l 0.72851,2.77528 h -3.5963 c 0.70153,-2.65193 1.15251,-4.42889 1.35295,-5.33085 0.20814,-0.90197 0.34691,-1.54953 0.41629,-1.94269 z m -18.15495,0.74007 h 1.28356 c 1.4339,0 2.15084,0.47411 2.15084,1.42233 0,0.53193 -0.18116,0.9328 -0.54349,1.20262 -0.35461,0.26982 -0.85956,0.40473 -1.51484,0.40473 h -1.37607 z m 0,6.37158 h 1.51484 c 0.72465,0 1.27585,0.15033 1.6536,0.45098 0.38546,0.30065 0.57818,0.73236 0.57818,1.29513 0,1.20262 -0.71309,1.80393 -2.13928,1.80393 h -1.60734 z"
                     id="path925"
                     inkscape:connector-curvature="0" />
                </g>
              </g>
            </g>
          </g>
        </g>
      </g>
    </g>
  </g>
</svg>
